<svg width="6802" height="1080" viewBox="0 0 6802 1080" fill="none" xmlns="http://www.w3.org/2000/svg">
<path d="M311.519 14.4926C210.029 41.2748 126.158 101.182 89.5089 173.776C42.2877 267.514 48.6309 400.015 104.31 471.904L123.339 497.277L127.568 454.989C140.959 315.44 277.689 197.739 426.401 197.739C489.127 197.739 591.322 225.931 673.079 265.399C711.842 283.724 745.672 299.23 749.196 299.23C754.13 299.934 838.705 124.441 838.705 113.164C838.705 104.706 749.901 60.3042 692.813 40.57C577.227 -1.01287 413.714 -12.2896 311.519 14.4926Z" fill="#ECEFF1"/>
<path d="M1124.15 15.1973C1122.03 20.8357 1121.33 259.761 1122.03 546.612L1124.15 1068.16L1241.85 1070.27L1360.25 1071.68L1361.66 897.6L1363.78 722.811L1435.67 720.696C1487.12 719.287 1509.67 721.401 1515.31 727.744C1520.24 732.678 1563.94 811.615 1613.98 902.533L1703.49 1068.16L1835.28 1070.27C1907.17 1070.98 1966.38 1070.27 1966.38 1067.46C1966.38 1065.34 1917.04 982.88 1857.13 884.209C1797.23 785.537 1747.89 702.372 1747.89 699.553C1747.89 696.733 1765.51 685.457 1786.65 674.885C1890.96 624.14 1947.35 528.287 1956.51 388.738C1969.2 197.739 1882.51 72.2856 1705.6 25.0644C1642.88 8.14936 1130.49 -0.308178 1124.15 15.1973ZM1635.12 211.835C1702.08 236.503 1734.5 285.134 1734.5 365.48C1735.2 440.893 1713.36 481.771 1658.38 508.553C1627.37 523.354 1613.27 525.468 1492.75 527.583L1360.25 530.402V369.004C1360.25 280.2 1362.37 204.787 1365.89 201.968C1373.64 192.805 1607.64 201.968 1635.12 211.835Z" fill="#ECEFF1"/>
<path d="M2223.63 15.9022C2221.51 20.8357 2220.81 259.761 2221.51 546.612L2223.63 1068.16H2325.82H2428.02L2431.54 698.143C2434.36 404.244 2436.47 331.65 2443.52 347.156C2447.75 357.023 2473.12 417.635 2499.2 481.066C2525.28 543.793 2580.96 678.409 2622.54 779.194L2698.66 962.441L2770.55 964.555C2810.02 965.26 2845.26 963.851 2848.78 960.327C2852.3 956.803 2893.18 873.637 2939.7 774.966C3210.34 203.377 3298.44 15.9022 3298.44 11.6734C3298.44 9.55901 3255.45 7.44469 3203.29 7.44469H3108.14L2944.63 335.174C2854.42 515.601 2777.6 662.199 2774.07 660.789C2769.84 659.379 2715.57 538.155 2652.14 390.853C2589.41 244.256 2525.98 97.6584 2511.89 65.2378L2485.81 7.44469H2356.13C2258.87 7.44469 2225.74 9.55902 2223.63 15.9022Z" fill="#ECEFF1"/>
<path d="M3969.4 15.9022C3965.88 20.8358 3935.57 91.3152 3902.45 173.071C3869.32 254.123 3800.96 423.978 3749.51 550.136C3698.06 676.294 3629.69 844.036 3597.98 923.677L3539.48 1068.16L3655.77 1070.27C3719.9 1070.98 3774.17 1070.98 3775.58 1068.86C3777.7 1067.46 3822.8 949.05 3876.37 805.977C3984.91 516.306 4077.94 275.971 4083.58 269.628C4085.69 267.514 4089.22 267.514 4089.92 268.923C4091.33 270.333 4159.7 450.76 4241.45 669.951L4389.46 1068.16L4513.5 1070.27C4581.87 1070.98 4637.55 1069.57 4637.55 1066.75C4637.55 1059.7 4226.65 27.8837 4219.6 15.9022C4215.38 9.55907 4182.25 7.44469 4095.56 7.44469C4008.87 7.44469 3975.04 9.55907 3969.4 15.9022Z" fill="#ECEFF1"/>
<path d="M5255.65 11.6731C5252.83 14.4923 5250.72 254.122 5250.72 544.498V1071.68H5370.53H5490.35L5488.94 540.974L5486.82 10.9683L5373.35 8.85393C5311.33 8.14914 5258.47 9.55873 5255.65 11.6731Z" fill="#ECEFF1"/>
<path d="M6135.23 13.0829C6131 15.9021 6073.92 149.813 6008.37 310.506C5943.53 471.199 5847.68 706.6 5795.52 833.463C5744.07 961.031 5701.79 1066.05 5701.79 1068.16C5701.79 1070.27 5755.35 1071.68 5820.19 1071.68H5939.3L6011.89 875.751C6109.86 610.044 6237.43 280.2 6245.18 272.447C6252.23 263.99 6236.02 222.407 6406.58 680.523L6551.06 1068.16L6676.52 1070.27C6744.88 1070.98 6801.26 1070.27 6801.26 1068.86C6801.26 1056.88 6382.62 17.3116 6376.27 13.0829C6365.7 6.03494 6144.4 6.03494 6135.23 13.0829Z" fill="#ECEFF1"/>
<path d="M3323.1 197.034L3122.24 600.881V836.283V1071.68H3220.91C3293.5 1071.68 3320.99 1069.57 3323.1 1062.52C3325.22 1058.29 3325.92 889.847 3325.22 688.981L3323.1 197.034Z" fill="#ECEFF1"/>
<path d="M308.7 364.775C274.87 403.539 259.364 478.952 274.165 533.221C283.327 567.051 327.025 610.748 357.331 617.796C397.504 626.254 491.242 657.97 522.253 674.18C618.809 722.811 624.448 822.187 533.529 868.703C491.946 889.847 384.818 884.209 310.11 856.722C241.744 832.054 174.789 796.814 128.273 761.574C107.834 746.069 89.5089 733.383 87.3945 733.383C83.1657 733.383 0 908.172 0 917.334C0 930.02 120.52 1002.61 181.837 1027.28C351.692 1095.65 545.511 1097.76 678.717 1032.22C741.444 1001.91 785.141 958.212 815.447 896.895C841.525 844.74 842.229 841.216 842.229 765.803C841.525 663.608 826.019 619.911 768.931 564.232C719.595 516.306 664.621 488.819 527.891 443.712C423.581 409.882 360.15 382.395 337.597 362.661C323.501 349.974 321.386 349.974 308.7 364.775Z" fill="#ECEFF1"/>
<path d="M4849.69 851.788C4812.34 870.818 4796.83 896.19 4794.01 946.936C4790.49 1018.12 4823.61 1062.52 4887.04 1069.57C4927.22 1074.5 4955.41 1063.23 4982.19 1032.22C5018.84 990.633 5018.14 917.334 4980.08 875.047C4948.36 839.807 4892.68 829.235 4849.69 851.788Z" fill="#ECEFF1"/>
</svg>
