<svg width="4581" height="1065" viewBox="0 0 4581 1065" fill="none" xmlns="http://www.w3.org/2000/svg">
<path d="M2.37868 8.45753C0.264298 13.3911 -0.440496 252.316 0.264298 539.168L2.37868 1060.72H104.574H206.769L210.293 690.699C213.112 396.799 215.227 324.205 222.275 339.711C226.503 349.578 251.876 410.19 277.953 473.622C304.031 536.349 359.709 670.964 401.292 771.75L477.41 954.996L549.299 957.111C588.768 957.816 624.007 956.406 627.531 952.882C631.055 949.358 671.933 866.192 718.45 767.521C989.091 195.933 1077.19 8.45752 1077.19 4.22875C1077.19 2.11437 1034.2 4.94082e-05 982.043 4.94082e-05H886.895L723.383 327.729C633.17 508.157 556.347 654.754 552.823 653.344C548.594 651.935 494.325 530.71 430.894 383.408C368.167 236.811 304.735 90.2137 290.64 57.7932L264.562 4.94082e-05H134.88C37.6184 4.94082e-05 4.49306 2.11438 2.37868 8.45753Z" fill="#ECEFF1"/>
<path d="M1748.16 8.45752C1744.63 13.3911 1714.32 83.8705 1681.2 165.627C1648.07 246.678 1579.71 416.533 1528.26 542.692C1476.81 668.85 1408.44 836.591 1376.73 916.233L1318.23 1060.72L1434.52 1062.83C1498.66 1063.53 1552.93 1063.53 1554.34 1061.42C1556.45 1060.01 1601.56 941.605 1655.12 798.532C1763.66 508.861 1856.69 268.527 1862.33 262.183C1864.45 260.069 1867.97 260.069 1868.67 261.479C1870.08 262.888 1938.45 443.316 2020.21 662.507L2168.21 1060.72L2292.26 1062.83C2360.62 1063.53 2416.3 1062.13 2416.3 1059.31C2416.3 1052.26 2005.4 20.439 1998.36 8.45752C1994.13 2.11437 1961 -1.57842e-05 1874.31 -1.57842e-05C1787.62 -1.57842e-05 1753.79 2.11437 1748.16 8.45752Z" fill="#ECEFF1"/>
<path d="M3034.4 4.22847C3031.59 7.04765 3029.47 246.678 3029.47 537.053V1064.24H3149.29H3269.1L3267.69 533.529L3265.58 3.52368L3152.1 1.40929C3090.08 0.704498 3037.22 2.11409 3034.4 4.22847Z" fill="#ECEFF1"/>
<path d="M3913.99 5.63824C3909.76 8.45741 3852.67 142.368 3787.12 303.061C3722.28 463.755 3626.43 699.156 3574.27 826.019C3522.82 953.587 3480.54 1058.6 3480.54 1060.72C3480.54 1062.83 3534.1 1064.24 3598.94 1064.24H3718.05L3790.65 868.306C3888.61 602.599 4016.18 272.755 4023.93 265.003C4030.98 256.545 4014.77 214.962 4185.33 673.078L4329.81 1060.72L4455.27 1062.83C4523.63 1063.53 4580.02 1062.83 4580.02 1061.42C4580.02 1049.44 4161.37 9.867 4155.03 5.63824C4144.45 -1.40971 3923.15 -1.40971 3913.99 5.63824Z" fill="#ECEFF1"/>
<path d="M1101.86 189.589L900.99 593.437V828.838V1064.24H999.661C1072.26 1064.24 1099.74 1062.12 1101.86 1055.08C1103.97 1050.85 1104.68 882.402 1103.97 681.536L1101.86 189.589Z" fill="#ECEFF1"/>
<path d="M2628.44 844.344C2591.09 863.373 2575.58 888.746 2572.76 939.491C2569.24 1010.68 2602.37 1055.08 2665.8 1062.13C2705.97 1067.06 2734.16 1055.78 2760.94 1024.77C2797.59 983.188 2796.89 909.89 2758.83 867.602C2727.11 832.362 2671.44 821.79 2628.44 844.344Z" fill="#ECEFF1"/>
</svg>
